<svg width="106" height="40" viewBox="0 0 106 40" fill="none" xmlns="http://www.w3.org/2000/svg">
<path d="M19.798 39.976C30.7321 39.976 39.596 31.0271 39.596 19.988C39.596 8.94892 30.7321 0 19.798 0C8.86386 0 0 8.94892 0 19.988C0 31.0271 8.86386 39.976 19.798 39.976Z" fill="black"/>
<path d="M25.8088 13.9292C27.823 13.9292 29.4558 12.2807 29.4558 10.2472C29.4558 8.21373 27.823 6.56525 25.8088 6.56525C23.7946 6.56525 22.1617 8.21373 22.1617 10.2472C22.1617 12.2807 23.7946 13.9292 25.8088 13.9292Z" fill="white"/>
<path d="M85.3302 39.976C96.2644 39.976 105.128 31.0271 105.128 19.988C105.128 8.94892 96.2644 0 85.3302 0C74.3961 0 65.5322 8.94892 65.5322 19.988C65.5322 31.0271 74.3961 39.976 85.3302 39.976Z" fill="black"/>
<path d="M91.3409 13.9292C93.3551 13.9292 94.988 12.2807 94.988 10.2472C94.988 8.21373 93.3551 6.56525 91.3409 6.56525C89.3268 6.56525 87.694 8.21373 87.694 10.2472C87.694 12.2807 89.3268 13.9292 91.3409 13.9292Z" fill="white"/>
</svg>
