<svg width="262" height="49" viewBox="0 0 262 49" fill="none" xmlns="http://www.w3.org/2000/svg">
    <path
        d="M257.445 24.3548C257.445 24.3548 257.411 24.402 257.351 24.5006C237.749 10.5092 209.929 17.5692 192.266 24.6636L192.064 24.3548C192.064 24.3548 206.699 1 224.757 1C242.814 1 257.445 24.3548 257.445 24.3548Z"
        stroke="black" stroke-width="0.74" stroke-miterlimit="10" />
    <path
        d="M257.351 24.5221C256.561 25.7445 250.822 34.3873 242.471 40.7696C237.367 44.6728 231.285 47.731 224.757 47.731C221.547 47.6934 218.377 47.0168 215.432 45.7408C203.04 40.5938 193.72 26.9112 192.27 24.6851C198.565 22.1251 205.058 20.0796 211.683 18.5686C213.528 18.1397 215.406 17.7966 217.298 17.492C223.586 16.4841 230.075 16.1109 236.398 16.8187C238.327 17.0332 240.243 17.3539 242.137 17.7794C247.608 18.9863 252.781 21.2792 257.351 24.5221V24.5221Z"
        fill="white" stroke="black" stroke-width="0.74" stroke-miterlimit="10" />
    <path
        d="M245.203 29.5876C245.223 33.473 244.284 37.3032 242.471 40.7396C237.367 44.6428 231.285 47.701 224.757 47.701C221.547 47.6633 218.377 46.9868 215.432 45.7108C211.503 41.8505 208.998 36.0515 208.998 29.579C208.991 25.7459 209.912 21.9681 211.683 18.5686C221.523 16.3897 232.199 15.519 242.137 17.7794C244.177 21.3785 245.234 25.4507 245.203 29.5876V29.5876Z"
        fill="#005C25" />
    <path
        d="M241.317 29.3646C241.317 38.4963 234.969 45.8952 227.163 45.8952C219.357 45.8952 213.009 38.4963 213.009 29.3646C212.953 25.0181 214.477 20.7991 217.298 17.492C223.586 16.4841 230.075 16.1109 236.398 16.8187C239.4 19.8511 241.317 24.3505 241.317 29.3646Z"
        fill="black" />
    <path
        d="M238.877 23.7243C240.256 23.7243 241.373 22.4203 241.373 20.8119C241.373 19.2034 240.256 17.8995 238.877 17.8995C237.498 17.8995 236.381 19.2034 236.381 20.8119C236.381 22.4203 237.498 23.7243 238.877 23.7243Z"
        fill="white" />
    <path
        d="M192 24.5221C193.843 23.4118 195.75 22.4093 197.709 21.5196C199.662 20.6132 201.652 19.7968 203.68 19.0705C207.737 17.5723 211.936 16.4929 216.213 15.8493C220.512 15.269 224.85 15.0138 229.188 15.0858C233.528 15.1467 237.847 15.7154 242.055 16.78L241.442 18.6544L242.137 16.8015C242.107 16.8015 242.137 16.8015 242.137 16.8015L242.93 17.0031L242.909 17.7665L242.137 16.8058C244.898 17.5141 247.583 18.491 250.153 19.7224C252.71 20.9485 255.132 22.4378 257.381 24.1661L257.243 24.106C257.621 24.1752 258.007 24.1896 258.388 24.1489C258.793 24.1071 259.193 24.0252 259.581 23.9044C259.972 23.7757 260.352 23.615 260.718 23.424C261.086 23.2254 261.441 23.0033 261.781 22.7592L262 23.0337C261.667 23.3181 261.316 23.5803 260.949 23.8186C260.575 24.0551 260.182 24.2602 259.774 24.432C259.359 24.6025 258.928 24.7304 258.487 24.8137C258.024 24.9056 257.549 24.9215 257.08 24.8609H257.025L256.939 24.8052C254.633 23.2878 252.175 22.0156 249.604 21.0092C247.046 20.0178 244.403 19.2613 241.708 18.7488L240.966 18.603L240.94 17.7837L241.712 18.7488H241.652H241.57L242.248 16.8915L241.635 18.7659C239.589 18.3777 237.523 18.1127 235.445 17.9724C233.369 17.8202 231.286 17.7772 229.205 17.8438C227.121 17.9039 225.043 18.0714 222.977 18.3456C220.909 18.6158 218.859 18.9933 216.809 19.3836C212.723 20.1671 208.629 21.0178 204.529 21.9357C200.424 22.8664 196.332 23.9216 192.137 24.8609L192 24.5221Z"
        fill="black" />
    <path
        d="M4.54657 24.3548C4.54657 24.3548 4.5809 24.402 4.64095 24.5006C24.2427 10.5092 52.0625 17.5692 69.7255 24.6636L69.9271 24.3548C69.9271 24.3548 55.2923 1 37.2347 1C19.1771 1 4.54657 24.3548 4.54657 24.3548Z"
        stroke="black" stroke-width="0.74" stroke-miterlimit="10" />
    <path
        d="M4.64096 24.5006C5.43018 25.723 11.1691 34.3658 19.5202 40.7524C24.6244 44.6556 30.7108 47.7095 37.2347 47.7095C40.4446 47.6744 43.615 46.9978 46.5595 45.7193C58.951 40.5723 68.2715 26.8897 69.7212 24.6636C63.4296 22.1116 56.9417 20.0733 50.3211 18.5686C48.4767 18.1611 46.5981 17.7965 44.7065 17.4963C38.4185 16.484 31.9289 16.1109 25.6066 16.8186C23.6789 17.0333 21.7644 17.354 19.872 17.7794C14.3968 18.9793 9.21771 21.2647 4.64096 24.5006V24.5006Z"
        fill="white" stroke="black" stroke-width="0.74" stroke-miterlimit="10" />
    <path
        d="M16.788 29.5876C16.7698 33.4728 17.7081 37.3028 19.5202 40.7396C24.6244 44.6428 30.7108 47.6967 37.2347 47.6967C40.4445 47.6616 43.6149 46.9849 46.5594 45.7065C50.4883 41.8462 52.9932 36.0472 52.9932 29.5748C53.0107 25.7413 52.0997 21.9606 50.3382 18.5558C40.4988 16.3768 29.8229 15.5104 19.8848 17.7666C17.8307 21.3659 16.7624 25.4435 16.788 29.5876V29.5876Z"
        fill="#005C25" />
    <path
        d="M20.674 29.3646C20.674 38.4963 27.022 45.8995 34.8284 45.8995C42.6348 45.8995 48.9828 38.4963 48.9828 29.3646C49.0398 25.0192 47.5154 20.8013 44.6936 17.4963C38.4056 16.484 31.916 16.1109 25.5937 16.8186C22.5912 19.8511 20.674 24.3505 20.674 29.3646Z"
        fill="black" />
    <path
        d="M47.2071 24.8094C48.5858 24.8094 49.7034 23.5055 49.7034 21.8971C49.7034 20.2886 48.5858 18.9847 47.2071 18.9847C45.8284 18.9847 44.7108 20.2886 44.7108 21.8971C44.7108 23.5055 45.8284 24.8094 47.2071 24.8094Z"
        fill="white" />
    <path
        d="M69.8627 24.8437C65.6679 23.9044 61.576 22.8492 57.4712 21.9185C53.3664 20.9877 49.2788 20.1513 45.1912 19.3707C43.1409 18.9761 41.0907 18.5986 39.0233 18.3284C36.9571 18.0563 34.8785 17.8888 32.7954 17.8266C30.7143 17.7601 28.6311 17.803 26.5545 17.9553C24.4776 18.0979 22.4109 18.3629 20.3652 18.7488L19.7518 16.8744L20.4295 18.7316L20.348 18.753H20.288L21.06 17.788L21.0343 18.6029L20.2923 18.7488C17.5972 19.266 14.9544 20.0254 12.3958 21.0177C9.82455 22.0239 7.36616 23.2977 5.06127 24.818L4.97548 24.8695H4.91972C4.45131 24.9301 3.97617 24.9142 3.51287 24.8223C3.07274 24.7384 2.6418 24.612 2.2261 24.4448C1.81888 24.2699 1.42594 24.0634 1.05086 23.8272C0.68376 23.5889 0.332712 23.3266 0 23.0423L0.218754 22.7678C0.557732 23.0134 0.91313 23.2355 1.28247 23.4326C1.64755 23.6236 2.02772 23.7843 2.41912 23.913C2.8075 24.0338 3.20692 24.1157 3.61151 24.1575C3.99333 24.1982 4.37905 24.1837 4.75675 24.1146L4.61949 24.1746C6.86768 22.4463 9.28987 20.9571 11.8468 19.731C14.4174 18.4995 17.1024 17.5227 19.8634 16.8143L19.0913 17.7794V17.0202L19.8848 16.8186C19.8848 16.8186 19.9105 16.8186 19.8848 16.8186L20.5625 18.6758L19.9491 16.8015C24.1576 15.7368 28.4762 15.1682 32.8168 15.1072C37.1525 15.024 41.4883 15.2677 45.7874 15.8364C50.0641 16.4815 54.2636 17.5623 58.3205 19.0619C60.3478 19.7825 62.338 20.5974 64.2911 21.5067C66.2496 22.3981 68.1557 23.4006 70 24.5092L69.8627 24.8437Z"
        fill="black" />
</svg>