<svg width="244" height="63" viewBox="0 0 244 63" fill="none" xmlns="http://www.w3.org/2000/svg">
    <path
        d="M50.9994 39.1399C50.9994 57.8994 43.8976 62.1157 28.8109 62.1157C13.7241 62.1157 1.49883 57.8994 1.49883 39.1399C1.49883 24.3209 9.12813 11.7199 19.7708 7.08001C22.6194 5.82486 25.6979 5.17568 28.8109 5.17368C40.7803 5.17368 47.7223 14.7453 50.0802 28.0736C50.7083 31.7285 51.0158 35.4314 50.9994 39.1399V39.1399Z"
        fill="white" stroke="black" stroke-width="1.18" stroke-miterlimit="10" />
    <path
        d="M50.0922 28.0736C47.7183 36.5222 41.0002 42.6128 33.0871 42.6128C23.1838 42.6128 15.1588 33.0852 15.1588 21.3395C15.108 16.2167 16.727 11.2167 19.7708 7.09599C22.6195 5.84085 25.698 5.19166 28.8109 5.18966C40.7804 5.17367 47.7223 14.7453 50.0922 28.0736Z"
        fill="#080808" />
    <path
        d="M1.33493 38.8361C0.923174 36.0076 0.890915 33.1367 1.23902 30.2996C1.5983 27.4204 2.3277 24.5995 3.40911 21.907C4.48726 19.1846 5.98548 16.648 7.84922 14.3896C9.72339 12.1387 11.8947 10.153 14.3035 8.48676L15.2028 7.86731C15.5145 7.67548 15.8382 7.49963 16.1539 7.31579L17.1051 6.77228C17.4208 6.59244 17.7645 6.45656 18.0922 6.30069C19.4043 5.6566 20.7763 5.14259 22.1886 4.76603C25.0083 4.01685 27.9453 3.81471 30.841 4.17056C32.2789 4.34976 33.6928 4.68615 35.0573 5.17368C36.4139 5.66567 37.705 6.32199 38.902 7.12797C40.0883 7.92276 41.181 8.84917 42.1591 9.88954C43.1222 10.9244 43.9866 12.0469 44.7408 13.2426L44.4811 13.4184C42.8388 11.2068 40.769 9.34762 38.3944 7.95125C37.2187 7.2806 35.9669 6.7533 34.6657 6.38063C33.3688 6.02182 32.0369 5.80474 30.6932 5.7332C28.0137 5.57197 25.328 5.92326 22.7801 6.76828C21.512 7.18069 20.2872 7.7161 19.1233 8.36687C18.8316 8.52673 18.5278 8.66261 18.2481 8.83846L17.4088 9.378L16.5696 9.92152L15.7703 10.529C13.6757 12.174 11.8349 14.1185 10.3071 16.2999C8.76003 18.4681 7.41174 20.7714 6.27859 23.1819C5.11007 25.6139 4.14625 28.1391 3.39712 30.7313C2.67495 33.3989 2.08805 36.1013 1.63866 38.8281L1.33493 38.8361Z"
        fill="black" />
    <path
        d="M33.3908 19.2253C35.0683 19.2253 36.4282 17.9872 36.4282 16.4598C36.4282 14.9324 35.0683 13.6942 33.3908 13.6942C31.7133 13.6942 30.3535 14.9324 30.3535 16.4598C30.3535 17.9872 31.7133 19.2253 33.3908 19.2253Z"
        fill="white" />
    <path
        d="M39.9371 33.1211C40.4955 33.1211 40.9482 32.7078 40.9482 32.1979C40.9482 31.6881 40.4955 31.2747 39.9371 31.2747C39.3787 31.2747 38.926 31.6881 38.926 32.1979C38.926 32.7078 39.3787 33.1211 39.9371 33.1211Z"
        fill="white" />
    <path
        d="M193.001 35.133C193.001 53.8962 200.104 58.1133 215.189 58.1133C230.275 58.1133 242.511 53.8962 242.511 35.133C242.511 20.3112 234.876 7.70786 224.231 3.07104C221.381 1.82048 218.302 1.17661 215.189 1.18034C203.222 1.18034 196.278 10.7538 193.92 24.0846C193.293 27.7337 192.985 31.4305 193.001 35.133V35.133Z"
        fill="white" stroke="black" stroke-width="1.18" stroke-miterlimit="10" />
    <path
        d="M193.92 24.0646C196.29 32.5148 203.01 38.6067 210.928 38.6067C220.83 38.6067 228.856 29.0772 228.856 17.3293C228.909 12.1996 227.285 7.19301 224.231 3.07104C221.381 1.82048 218.302 1.17661 215.189 1.18034C203.222 1.18034 196.29 10.7338 193.92 24.0646Z"
        fill="#080808" />
    <path
        d="M242.351 34.8292C241.903 32.1015 241.316 29.3985 240.592 26.7308C239.846 24.1377 238.883 21.6119 237.714 19.18C236.579 16.7699 235.231 14.4662 233.685 12.2967C232.155 10.1148 230.313 8.16991 228.216 6.52467L227.417 5.91708L226.582 5.37346L225.742 4.83384C225.458 4.65796 225.159 4.52206 224.867 4.36217C223.701 3.71124 222.475 3.17573 221.205 2.76326C218.657 1.9178 215.971 1.56641 213.291 1.72796C211.948 1.79953 210.617 2.01665 209.321 2.37552C208.019 2.74687 206.767 3.27434 205.592 3.94644C203.216 5.34327 201.145 7.20436 199.504 9.41868L199.244 9.2388C199.999 8.04291 200.863 6.92014 201.827 5.88512C202.803 4.84461 203.895 3.918 205.08 3.123C206.278 2.31845 207.57 1.6621 208.926 1.16834C210.292 0.680707 211.707 0.344282 213.147 0.165048C216.046 -0.185465 218.985 0.0234963 221.805 0.780617C223.218 1.15653 224.59 1.67067 225.902 2.31557C226.234 2.47147 226.574 2.61137 226.893 2.78725L227.845 3.33087C228.16 3.51474 228.48 3.69062 228.796 3.88249L229.695 4.50206C232.105 6.16859 234.276 8.15474 236.151 10.406C238.015 12.664 239.513 15.2013 240.588 17.9249C241.67 20.6179 242.401 23.4392 242.762 26.3191C243.109 29.1568 243.076 32.028 242.666 34.8572L242.351 34.8292Z"
        fill="black" />
    <path
        d="M210.612 15.2147C212.29 15.2147 213.65 13.9763 213.65 12.4486C213.65 10.9209 212.29 9.68253 210.612 9.68253C208.935 9.68253 207.575 10.9209 207.575 12.4486C207.575 13.9763 208.935 15.2147 210.612 15.2147Z"
        fill="white" />
    <path
        d="M204.065 29.1132C204.624 29.1132 205.076 28.6998 205.076 28.1898C205.076 27.6799 204.624 27.2664 204.065 27.2664C203.506 27.2664 203.054 27.6799 203.054 28.1898C203.054 28.6998 203.506 29.1132 204.065 29.1132Z"
        fill="white" />
</svg>