<svg width="253" height="82" viewBox="0 0 253 82" fill="none" xmlns="http://www.w3.org/2000/svg">
    <path
        d="M36 81.3111C55.33 81.3111 71 63.3328 71 41.1555C71 18.9782 55.33 1 36 1C16.67 1 1 18.9782 1 41.1555C1 63.3328 16.67 81.3111 36 81.3111Z"
        fill="white" stroke="black" stroke-width="0.98" stroke-miterlimit="10" />
    <path
        d="M58.3114 45.8606C58.3114 59.544 48.3007 70.6434 36 70.6434C23.6993 70.6434 13.6886 59.544 13.6886 45.8606C13.6876 44.2837 13.8216 42.7096 14.089 41.1555H57.8859C58.1617 42.7089 58.3041 44.283 58.3114 45.8606V45.8606Z"
        fill="#080808" />
    <path d="M71 41.1555H1C1 18.9755 16.6418 1 36 1C55.3582 1 71 18.9755 71 41.1555Z" fill="#7D4921" stroke="#080808"
        stroke-width="1.08" stroke-miterlimit="10" />
    <path d="M1 41.1555H71" stroke="black" stroke-width="5.42" stroke-miterlimit="10" />
    <path
        d="M217 81.3111C236.33 81.3111 252 63.3328 252 41.1555C252 18.9782 236.33 1 217 1C197.67 1 182 18.9782 182 41.1555C182 63.3328 197.67 81.3111 217 81.3111Z"
        fill="white" stroke="black" stroke-width="0.98" stroke-miterlimit="10" />
    <path
        d="M239.311 45.8606C239.311 59.544 229.301 70.6434 217 70.6434C204.699 70.6434 194.72 59.544 194.72 45.8606C194.719 44.2837 194.853 42.7096 195.12 41.1555H238.917C239.183 42.7098 239.314 44.2839 239.311 45.8606V45.8606Z"
        fill="#080808" />
    <path d="M252 41.1555H182C182 18.9755 197.642 1 217 1C236.358 1 252 18.9755 252 41.1555Z" fill="#7D4921"
        stroke="#080808" stroke-width="1.08" stroke-miterlimit="10" />
    <path d="M252 41.1555H182" stroke="black" stroke-width="5.42" stroke-miterlimit="10" />
</svg>