<svg width="280" height="40" viewBox="0 0 280 40" fill="none" xmlns="http://www.w3.org/2000/svg">
    <path
        d="M87 19.39C81.2261 25.0998 74.5859 29.8608 67.3251 33.4967C60.7848 36.7008 53.0384 39.119 44.704 38.975C42.576 38.9311 40.4542 38.7305 38.3557 38.3749C20.1449 35.3268 5.45616 21.5741 2 18.106C7.82627 13.2217 19.6108 4.77934 34.0355 1.9712C37.4319 1.30306 40.8888 0.991354 44.35 1.04116C52.8944 1.19117 60.9408 3.69929 67.8771 6.96944C74.7497 10.2867 81.175 14.46 87 19.39V19.39Z"
        fill="white" stroke="black" stroke-width="1.81" stroke-miterlimit="10" />
    <path
        d="M70.9913 14.8598C71.6922 18.0457 71.7283 21.3419 71.0975 24.5425C70.4667 27.743 69.1825 30.779 67.3251 33.4607C60.7848 36.6648 53.0385 39.0829 44.7041 38.9389C42.5761 38.8951 40.4543 38.6945 38.3558 38.3389C33.1595 34.7324 29.5551 29.2602 28.2933 23.0622C26.6012 14.9858 29.0073 7.13744 34.0356 1.93519C37.432 1.26705 40.8889 0.955344 44.3501 1.00515C52.8945 1.15515 60.9408 3.66328 67.8772 6.93343C69.3622 9.37734 70.4157 12.0586 70.9913 14.8598V14.8598Z"
        fill="black" />
    <path
        d="M192.68 19.39C198.454 25.0998 205.094 29.8608 212.355 33.4967C218.895 36.7008 226.642 39.1189 234.976 38.9749C237.104 38.9311 239.226 38.7305 241.324 38.3749C259.535 35.3268 274.224 21.5741 277.68 18.1059C271.854 13.2217 260.069 4.77932 245.645 1.97119C242.248 1.30305 238.791 0.991339 235.33 1.04114C226.786 1.19115 218.733 3.69927 211.803 6.96942C204.93 10.2867 198.505 14.46 192.68 19.39V19.39Z"
        fill="white" stroke="black" stroke-width="1.81" stroke-miterlimit="10" />
    <path
        d="M208.689 14.8598C207.988 18.0457 207.952 21.3419 208.583 24.5425C209.213 27.743 210.498 30.779 212.355 33.4607C218.895 36.6648 226.642 39.0829 234.976 38.9389C237.104 38.8951 239.226 38.6945 241.324 38.3389C246.521 34.7324 250.125 29.2602 251.387 23.0622C253.079 14.9858 250.673 7.13744 245.645 1.93519C242.248 1.26705 238.791 0.955344 235.33 1.00515C226.786 1.15515 218.733 3.66328 211.803 6.93343C210.318 9.37734 209.264 12.0586 208.689 14.8598V14.8598Z"
        fill="black" />
</svg>