<svg width="346" height="368" viewBox="0 0 346 368" fill="none" xmlns="http://www.w3.org/2000/svg">
<path d="M345.98 187.814C345.981 196.505 345.379 205.186 344.176 213.793C332.048 300.475 260.092 367.044 173.153 367.044C86.2131 367.044 14.3537 300.553 2.15842 213.919C0.949705 205.271 0.350029 196.548 0.363882 187.814C0.395858 179.145 0.914459 170.484 1.91722 161.874C3.38136 149.189 5.69255 136.617 8.83495 124.246C15.5887 97.6927 26.0569 72.3473 39.5257 55.3205C46.8629 45.9849 55.4368 37.7121 65.0065 30.7348C66.5502 29.6049 68.1325 28.514 69.7244 27.462C98.5627 8.37011 134.367 0.986633 173.114 0.986633C207.49 0.986633 239.532 6.83108 266.45 21.4422C272.524 24.7354 278.331 28.507 283.817 32.722C292.387 39.265 300.114 46.8631 306.818 55.34C319.669 71.5875 329.829 95.4134 336.563 120.603C340.201 134.183 342.832 148.017 344.436 161.991C345.436 170.562 345.951 179.184 345.98 187.814Z" fill="#7D4921"/>
</svg>
