<svg width="346" height="367" viewBox="0 0 346 367" fill="none" xmlns="http://www.w3.org/2000/svg">
    <path
        d="M345.62 186.795C345.622 195.485 345.019 204.166 343.816 212.771C331.689 299.458 259.738 366.06 172.805 366.06C85.872 366.06 14.0178 299.545 1.82341 212.917C0.60419 204.264 -0.00514467 195.535 3.27158e-05 186.795C0.0320063 178.126 0.550629 169.466 1.55332 160.857C3.01736 148.172 5.32834 135.601 8.47052 123.231C15.2237 96.6797 25.6912 71.3361 39.1591 54.3105C46.5178 44.9777 55.114 36.7121 64.7055 29.7461C66.2491 28.6163 67.8313 27.5254 69.4231 26.4735C98.2593 7.383 134.061 0 172.805 0C207.179 0 239.218 5.84402 266.135 20.4541C272.224 23.7448 278.047 27.5163 283.548 31.7331C292.086 38.2752 299.783 45.866 306.461 54.33C319.311 70.5764 329.47 94.4005 336.204 119.588C339.841 133.167 342.473 147 344.076 160.974C345.076 169.544 345.592 178.165 345.62 186.795V186.795Z"
        fill="#7D4921" />
</svg>