<svg xmlns="http://www.w3.org/2000/svg" viewBox="0 0 1080 1080">
    <defs>
        <style>
            .cls-1,
            .cls-10,
            .cls-13,
            .cls-15,
            .cls-3,
            .cls-5,
            .cls-6,
            .cls-8 {
                fill: #fff;
            }

            .cls-10,
            .cls-13,
            .cls-14,
            .cls-15,
            .cls-2,
            .cls-3,
            .cls-4,
            .cls-5,
            .cls-6,
            .cls-7,
            .cls-8 {
                stroke: #000;
            }

            .cls-10,
            .cls-12,
            .cls-13,
            .cls-14,
            .cls-15,
            .cls-2,
            .cls-3,
            .cls-4,
            .cls-5,
            .cls-6,
            .cls-7,
            .cls-8 {
                stroke-miterlimit: 10;
            }

            .cls-2,
            .cls-3,
            .cls-4 {
                stroke-width: 0.85px;
            }

            .cls-12,
            .cls-14,
            .cls-4,
            .cls-7 {
                fill: none;
            }

            .cls-5 {
                stroke-width: 1.81px;
            }

            .cls-6 {
                stroke-width: 2.08px;
            }

            .cls-7,
            .cls-8 {
                stroke-width: 0.74px;
            }

            .cls-9 {
                fill: #005c25;
            }

            .cls-10 {
                stroke-width: 0.98px;
            }

            .cls-11 {
                fill: #080808;
            }

            .cls-12 {
                stroke: #080808;
                stroke-width: 1.08px;
            }

            .cls-13,
            .cls-14 {
                stroke-width: 5.42px;
            }

            .cls-15 {
                stroke-width: 1.18px;
            }
        </style>
    </defs>
    <g id="Layer_1" data-name="Layer 1">
        <ellipse cx="668.94" cy="758.12" rx="38.65" ry="40.55" />
        <ellipse class="cls-1" cx="680.67" cy="738.36" rx="7.13" ry="7.48" />
        <ellipse cx="838.26" cy="757.88" rx="38.65" ry="40.55" />
        <ellipse class="cls-1" cx="849.99" cy="738.12" rx="7.13" ry="7.48" />
        <ellipse class="cls-2" cx="220.1" cy="952.84" rx="32.38" ry="34.67" />
        <ellipse class="cls-3" cx="229.93" cy="935.94" rx="5.97" ry="6.39" />
        <rect class="cls-4" x="147.33" y="892.36" width="145.55" height="120.96" rx="59.86" />
        <ellipse class="cls-2" cx="438.88" cy="952.84" rx="32.38" ry="34.67" />
        <ellipse class="cls-3" cx="452.51" cy="935.94" rx="5.97" ry="6.39" />
        <rect class="cls-4" x="366.11" y="892.36" width="145.55" height="120.96" rx="59.86"
            transform="translate(877.76 1905.68) rotate(-180)" />
    </g>
    <g id="Layer_3" data-name="Layer 3">
        <path class="cls-5"
            d="M167.55,246a128.39,128.39,0,0,1-32.79,23.51c-10.9,5.34-23.81,9.37-37.7,9.13a72.23,72.23,0,0,1-10.58-1c-30.35-5.08-54.83-28-60.59-33.78,9.71-8.14,29.35-22.21,53.39-26.89a82.88,82.88,0,0,1,17.19-1.55c14.24.25,27.65,4.43,39.21,9.88A150.8,150.8,0,0,1,167.55,246Z" />
        <path
            d="M140.87,238.45a39.53,39.53,0,0,1-6.11,31c-10.9,5.34-23.81,9.37-37.7,9.13a72.23,72.23,0,0,1-10.58-1,40.93,40.93,0,0,1-16.77-25.46c-2.82-13.46,1.19-26.54,9.57-35.21a82.88,82.88,0,0,1,17.19-1.55c14.24.25,27.65,4.43,39.21,9.88A41.54,41.54,0,0,1,140.87,238.45Z" />
        <path class="cls-5"
            d="M216.57,246a128.39,128.39,0,0,0,32.79,23.51c10.9,5.34,23.81,9.37,37.7,9.13a72.23,72.23,0,0,0,10.58-1c30.35-5.08,54.83-28,60.59-33.78-9.71-8.14-29.35-22.21-53.39-26.89a82.88,82.88,0,0,0-17.19-1.55c-14.24.25-27.66,4.43-39.21,9.88A150.8,150.8,0,0,0,216.57,246Z" />
        <path
            d="M243.25,238.45a39.53,39.53,0,0,0,6.11,31c10.9,5.34,23.81,9.37,37.7,9.13a72.23,72.23,0,0,0,10.58-1,40.93,40.93,0,0,0,16.77-25.46c2.82-13.46-1.19-26.54-9.57-35.21a82.88,82.88,0,0,0-17.19-1.55c-14.24.25-27.66,4.43-39.21,9.88A41.54,41.54,0,0,0,243.25,238.45Z" />
        <path d="M86.45,91.49H51.25V52.07H85v4.17H59V69.36H83v4.15H59v13.8H86.45Z" />
        <path
            d="M136,63.34,114.15,96a18.61,18.61,0,0,1-16.4,8.74,28.57,28.57,0,0,1-5-.35v-4a22.76,22.76,0,0,0,4.49.49q5.74,0,8.61-4.07l3.8-5.33L91.18,63.34h8.43L112.44,85c.15.28.47,1,1,2.15h.28a21.39,21.39,0,0,1,.92-2.09l13.48-21.72Z" />
        <path
            d="M181.77,78.54H148.28a8.55,8.55,0,0,0,4.26,7.26q4.08,2.57,11.21,2.56a34.38,34.38,0,0,0,14.73-3.14v4.24q-6.25,2.69-16.53,2.69-10,0-15.8-3.83a12.26,12.26,0,0,1-5.74-10.8q0-6.57,6.28-10.7t15.58-4.14q9.31,0,14.41,3.57a11.47,11.47,0,0,1,5.09,9.93ZM174,74.72a7.11,7.11,0,0,0-3.17-6.08c-2.09-1.44-5-2.17-8.69-2.17A17.24,17.24,0,0,0,153,68.75a9.49,9.49,0,0,0-4.63,6Z" />
        <path
            d="M190.39,90.48V85.64a33.69,33.69,0,0,0,13.66,2.72q10,0,10-4a2.49,2.49,0,0,0-.85-1.91,7.91,7.91,0,0,0-2.32-1.39A23.63,23.63,0,0,0,207.45,80c-1.31-.32-2.72-.65-4.23-1-2.1-.5-3.95-1-5.54-1.5a19,19,0,0,1-4-1.7,7.33,7.33,0,0,1-2.41-2.16,5,5,0,0,1-.81-2.83A4.83,4.83,0,0,1,192,67.31a12.09,12.09,0,0,1,4.07-2.56,27.35,27.35,0,0,1,5.82-1.55,42.28,42.28,0,0,1,6.73-.52,44.08,44.08,0,0,1,11,1.26v4.57a33,33,0,0,0-12-2,23.58,23.58,0,0,0-3.85.29,13,13,0,0,0-2.94.81,5.55,5.55,0,0,0-1.9,1.25,2.33,2.33,0,0,0-.67,1.61,2.61,2.61,0,0,0,.67,1.84,5.74,5.74,0,0,0,2,1.32,18.67,18.67,0,0,0,3.15,1c1.23.31,2.64.65,4.21,1q3.15.7,5.66,1.47a23.44,23.44,0,0,1,4.26,1.7A8.34,8.34,0,0,1,220.89,81a4.68,4.68,0,0,1,.94,2.94,4.94,4.94,0,0,1-1.55,3.63,12.09,12.09,0,0,1-4.14,2.56,27.61,27.61,0,0,1-6,1.51,48.79,48.79,0,0,1-7.08.49A43,43,0,0,1,190.39,90.48Z" />
        <path class="cls-6"
            d="M810.66,264.27A144.38,144.38,0,0,0,851,286.39c13,4.46,27.91,7,43.17,4.44a75.53,75.53,0,0,0,11.49-2.92c32.55-11,55.47-42,60.8-49.73-12.15-7.93-36.29-21.18-63.61-22.67a86.87,86.87,0,0,0-19.22,1.05c-15.66,2.66-29.71,9.8-41.47,18.12A166.51,166.51,0,0,0,810.66,264.27Z" />
        <path
            d="M838.74,251c-.62,13.81,4.17,26.5,12.23,35.38,13,4.46,27.91,7,43.17,4.44a75.53,75.53,0,0,0,11.49-2.92,48.87,48.87,0,0,0,14-32.67c.72-16.26-6-30.94-16.78-39.73a86.87,86.87,0,0,0-19.22,1.05c-15.66,2.66-29.71,9.8-41.47,18.12A51.13,51.13,0,0,0,838.74,251Z" />
        <path
            d="M810.47,264.11a169.12,169.12,0,0,1,16.84-18.46A145.17,145.17,0,0,1,846.9,230a108.53,108.53,0,0,1,22.48-11.42,86.33,86.33,0,0,1,24.86-5.11,93.41,93.41,0,0,1,12.74.16,107.2,107.2,0,0,1,12.62,1.72,111.85,111.85,0,0,1,24.14,7.83c3.84,1.76,7.61,3.66,11.28,5.74.93.54,1.78,1,2.8,1.67s1.8,1.29,2.63,1.93a22.94,22.94,0,0,0,4.75,3.13,5.38,5.38,0,0,0,4.75-.19,16.61,16.61,0,0,0,4.76-3.24,29.6,29.6,0,0,0,6.62-10.09l.48.15a27.46,27.46,0,0,1-5.43,11.5,19.07,19.07,0,0,1-5.08,4.31,9.19,9.19,0,0,1-3.47,1.26A8.74,8.74,0,0,1,964,239a23.34,23.34,0,0,1-5.93-3.21c-.86-.57-1.69-1.12-2.51-1.6s-1.75-.9-2.65-1.34c-3.67-1.82-7.4-3.52-11.19-5.05a158.09,158.09,0,0,0-23.21-7.58,93.59,93.59,0,0,0-24.15-2.72,82.94,82.94,0,0,0-23.95,4.18,105.94,105.94,0,0,0-22.21,10.46c-14.07,8.57-26.5,19.83-37.38,32.34Z" />
        <path class="cls-6"
            d="M772.83,264.27a144.27,144.27,0,0,1-40.3,22.12c-13,4.46-27.91,7-43.17,4.44a74.93,74.93,0,0,1-11.49-2.92c-32.55-11-55.47-42-60.8-49.73,12.15-7.93,36.29-21.18,63.61-22.67a86.91,86.91,0,0,1,19.22,1.05c15.65,2.66,29.7,9.8,41.47,18.12A166.72,166.72,0,0,1,772.83,264.27Z" />
        <path
            d="M744.76,251c.61,13.81-4.17,26.5-12.23,35.38-13,4.46-27.91,7-43.17,4.44a74.93,74.93,0,0,1-11.49-2.92,48.87,48.87,0,0,1-14-32.67c-.73-16.26,6-30.94,16.78-39.73a86.91,86.91,0,0,1,19.22,1.05c15.65,2.66,29.7,9.8,41.47,18.12A51.4,51.4,0,0,1,744.76,251Z" />
        <path
            d="M772.64,264.43c-10.89-12.51-23.31-23.77-37.38-32.34a105.94,105.94,0,0,0-22.21-10.46,83,83,0,0,0-23.95-4.18A93.59,93.59,0,0,0,665,220.17a157.7,157.7,0,0,0-23.21,7.58c-3.8,1.53-7.52,3.23-11.2,5.05-.89.44-1.89.93-2.65,1.34s-1.64,1-2.5,1.6a23.24,23.24,0,0,1-5.94,3.21,8.72,8.72,0,0,1-3.79.38,9.14,9.14,0,0,1-3.46-1.26,19.12,19.12,0,0,1-5.09-4.31,27.44,27.44,0,0,1-5.42-11.5l.47-.15a29.6,29.6,0,0,0,6.62,10.09,16.65,16.65,0,0,0,4.77,3.24,5.36,5.36,0,0,0,4.74.19,23,23,0,0,0,4.76-3.13c.82-.64,1.68-1.29,2.63-1.93s1.87-1.13,2.8-1.67c3.67-2.08,7.44-4,11.28-5.74a111.77,111.77,0,0,1,24.13-7.83,107.37,107.37,0,0,1,12.63-1.72,93.41,93.41,0,0,1,12.74-.16,86.26,86.26,0,0,1,24.85,5.11A108.86,108.86,0,0,1,736.6,230a145.08,145.08,0,0,1,19.58,15.67A169.21,169.21,0,0,1,773,264.11Z" />
        <path class="cls-7"
            d="M990.69,481.61s-.08.11-.22.34c-45.7-32.62-110.56-16.16-151.74.38l-.47-.72s34.12-54.45,76.22-54.45S990.69,481.61,990.69,481.61Z" />
        <path class="cls-8"
            d="M990.47,482c-1.84,2.85-15.22,23-34.69,37.88-11.9,9.1-26.08,16.23-41.3,16.23a56.35,56.35,0,0,1-21.74-4.64c-28.89-12-50.62-43.9-54-49.09A293.2,293.2,0,0,1,884,468.12c4.3-1,8.68-1.8,13.09-2.51,14.66-2.35,29.79-3.22,44.53-1.57A123.07,123.07,0,0,1,955,466.28h0A97.61,97.61,0,0,1,990.47,482Z" />
        <path class="cls-9"
            d="M962.15,493.81a55.12,55.12,0,0,1-6.37,26c-11.9,9.1-26.08,16.23-41.3,16.23a56.35,56.35,0,0,1-21.74-4.64c-9.16-9-15-22.52-15-37.61A55.33,55.33,0,0,1,884,468.12c22.94-5.08,47.83-7.11,71-1.84h0A55,55,0,0,1,962.15,493.81Z" />
        <path
            d="M953.09,493.29c0,21.29-14.8,38.54-33,38.54s-33-17.25-33-38.54a41.82,41.82,0,0,1,10-27.68c14.66-2.35,29.79-3.22,44.53-1.57C948.62,471.11,953.09,481.6,953.09,493.29Z" />
        <ellipse class="cls-1" cx="947.4" cy="473.35" rx="5.82" ry="6.79" />
        <path
            d="M838.11,482a129.88,129.88,0,0,1,13.31-7q6.83-3.17,13.92-5.71a147.88,147.88,0,0,1,29.22-7.51A201.23,201.23,0,0,1,924.81,460a129.75,129.75,0,0,1,30,3.95l-1.43,4.37h0L955,464c-.07,0,0,0,0,0h0l1.85.47-.05,1.78h0l-1.8-2.24a101.84,101.84,0,0,1,18.69,6.8,95.15,95.15,0,0,1,16.85,10.36l-.32-.14a9.33,9.33,0,0,0,2.67.1,14.3,14.3,0,0,0,2.78-.57,17.53,17.53,0,0,0,2.65-1.12,22.82,22.82,0,0,0,2.48-1.55l.51.64a23.29,23.29,0,0,1-2.45,1.83,18.76,18.76,0,0,1-2.74,1.43,15.45,15.45,0,0,1-3,.89,10.16,10.16,0,0,1-3.28.11l-.13,0-.2-.13a92.39,92.39,0,0,0-17.1-8.85A105.47,105.47,0,0,0,954,468.54l-1.73-.34-.06-1.91h0l1.8,2.25-.14,0-.19,0,1.58-4.33h0l-1.43,4.37a121.14,121.14,0,0,0-14.43-1.85,138.5,138.5,0,0,0-14.55-.3,141.34,141.34,0,0,0-14.52,1.17c-4.82.63-9.6,1.51-14.38,2.42q-14.29,2.74-28.63,5.95c-9.57,2.17-19.11,4.63-28.89,6.82Z" />
        <path class="cls-7"
            d="M592.85,479.86s.08.11.22.34c45.7-32.62,110.56-16.16,151.74.38l.47-.72s-34.12-54.45-76.22-54.45S592.85,479.86,592.85,479.86Z" />
        <path class="cls-8"
            d="M593.07,480.2c1.84,2.85,15.22,23,34.69,37.89,11.9,9.1,26.09,16.22,41.3,16.22a56.13,56.13,0,0,0,21.74-4.64c28.89-12,50.62-43.9,54-49.09a293.2,293.2,0,0,0-45.23-14.21c-4.3-.95-8.68-1.8-13.09-2.5-14.66-2.36-29.79-3.23-44.53-1.58a123.07,123.07,0,0,0-13.37,2.24v0A97.76,97.76,0,0,0,593.07,480.2Z" />
        <path class="cls-9"
            d="M621.39,492.06a55.19,55.19,0,0,0,6.37,26c11.9,9.1,26.09,16.22,41.3,16.22a56.13,56.13,0,0,0,21.74-4.64c9.16-9,15-22.52,15-37.61a55.36,55.36,0,0,0-6.19-25.69c-22.94-5.08-47.83-7.1-71-1.84v0A54.92,54.92,0,0,0,621.39,492.06Z" />
        <path
            d="M630.45,491.54c0,21.29,14.8,38.55,33,38.55s33-17.26,33-38.55a41.77,41.77,0,0,0-10-27.67c-14.66-2.36-29.79-3.23-44.53-1.58C634.92,469.36,630.45,479.85,630.45,491.54Z" />
        <ellipse class="cls-1" cx="692.31" cy="474.13" rx="5.82" ry="6.79" />
        <path
            d="M745.13,481c-9.78-2.19-19.32-4.65-28.89-6.82s-19.1-4.12-28.63-5.94c-4.78-.92-9.56-1.8-14.38-2.43a144.2,144.2,0,0,0-14.52-1.17,138.5,138.5,0,0,0-14.55.3,123.5,123.5,0,0,0-14.43,1.85l-1.43-4.37h0l1.58,4.33-.19.05-.14,0,1.8-2.25v0l-.06,1.9-1.73.34a106.34,106.34,0,0,0-18.41,5.29,91.83,91.83,0,0,0-17.1,8.86l-.2.12-.13,0a10.16,10.16,0,0,1-3.28-.11,16.14,16.14,0,0,1-3-.88,19.85,19.85,0,0,1-2.74-1.44,23.29,23.29,0,0,1-2.45-1.83l.51-.64a21.37,21.37,0,0,0,2.48,1.55,17.53,17.53,0,0,0,2.65,1.12,14.3,14.3,0,0,0,2.78.57,9.33,9.33,0,0,0,2.67-.1l-.32.14a95.15,95.15,0,0,1,16.85-10.36,101.84,101.84,0,0,1,18.69-6.8l-1.8,2.25v0l0-1.77,1.85-.47h0s.06,0,0,0l1.58,4.33h0l-1.43-4.37a129.75,129.75,0,0,1,30-3.95A201.15,201.15,0,0,1,689,460a147.9,147.9,0,0,1,29.22,7.52q7.09,2.52,13.92,5.7a131.89,131.89,0,0,1,13.31,7Z" />
        <circle class="cls-1" cx="676.87" cy="239.82" r="7.62" />
        <circle class="cls-1" cx="851.3" cy="239.82" r="7.62" />
        <ellipse class="cls-10" cx="129.53" cy="482.33" rx="55.94" ry="64.18" />
        <path class="cls-11"
            d="M165.19,489.85c0,21.87-16,39.61-35.66,39.61s-35.66-17.74-35.66-39.61a44.19,44.19,0,0,1,.64-7.52h70A44.19,44.19,0,0,1,165.19,489.85Z" />
        <path class="cls-12" d="M185.47,482.33H73.59c0-35.45,25-64.18,55.94-64.18S185.47,446.88,185.47,482.33Z" />
        <line class="cls-13" x1="73.59" y1="482.33" x2="185.47" y2="482.33" />
        <ellipse class="cls-10" cx="303.61" cy="482.33" rx="55.94" ry="64.18" />
        <path class="cls-11"
            d="M339.27,489.85c0,21.87-16,39.61-35.66,39.61S268,511.72,268,489.85a44.19,44.19,0,0,1,.64-7.52h70A44.19,44.19,0,0,1,339.27,489.85Z" />
        <path class="cls-12" d="M359.55,482.33H247.67c0-35.45,25-64.18,55.94-64.18S359.55,446.88,359.55,482.33Z" />
        <line class="cls-14" x1="359.55" y1="482.33" x2="247.67" y2="482.33" />
        <path class="cls-15"
            d="M278.27,773.18c0,46.94-17.77,57.49-55.52,57.49s-68.34-10.55-68.34-57.49c0-37.08,19.09-68.61,45.72-80.22a56.19,56.19,0,0,1,22.62-4.77c29.95,0,47.32,23.95,53.22,57.3A159.32,159.32,0,0,1,278.27,773.18Z" />
        <path class="cls-11"
            d="M276,745.49c-5.94,21.14-22.75,36.38-42.55,36.38-24.78,0-44.86-23.84-44.86-53.23A59,59,0,0,1,200.13,693a56.19,56.19,0,0,1,22.62-4.77C252.7,688.19,270.07,712.14,276,745.49Z" />
        <path
            d="M154,772.42a80.35,80.35,0,0,1-.24-21.36,84.38,84.38,0,0,1,5.43-21,70.11,70.11,0,0,1,11.11-18.81,80.91,80.91,0,0,1,16.15-14.77l2.25-1.55c.78-.48,1.59-.92,2.38-1.38l2.38-1.36c.79-.45,1.65-.79,2.47-1.18a56,56,0,0,1,10.25-3.84,57.16,57.16,0,0,1,21.65-1.49,49.58,49.58,0,0,1,10.55,2.51,44.21,44.21,0,0,1,9.62,4.89,47.39,47.39,0,0,1,8.15,6.91,56.78,56.78,0,0,1,6.46,8.39l-.65.44a51.46,51.46,0,0,0-15.23-13.68,42.38,42.38,0,0,0-9.33-3.93,46.56,46.56,0,0,0-9.94-1.62,52.82,52.82,0,0,0-19.8,2.59,51.19,51.19,0,0,0-9.15,4c-.73.4-1.49.74-2.19,1.18l-2.1,1.35-2.1,1.36-2,1.52a67.87,67.87,0,0,0-13.67,14.44,110.82,110.82,0,0,0-10.08,17.22,121.53,121.53,0,0,0-7.21,18.89,205.26,205.26,0,0,0-4.4,20.26Z" />
        <ellipse class="cls-1" cx="234.21" cy="716.43" rx="7.6" ry="6.92" />
        <ellipse class="cls-1" cx="250.59" cy="755.81" rx="2.53" ry="2.31" />
        <path class="cls-15"
            d="M323.77,772.94c0,46.94,17.77,57.49,55.51,57.49s68.35-10.55,68.35-57.49c0-37.08-19.1-68.61-45.73-80.21A56.13,56.13,0,0,0,379.28,688c-29.94,0-47.31,23.95-53.21,57.3A159.32,159.32,0,0,0,323.77,772.94Z" />
        <path class="cls-11"
            d="M326.07,745.25c5.93,21.14,22.74,36.38,42.55,36.38,24.77,0,44.85-23.84,44.85-53.23a58.9,58.9,0,0,0-11.57-35.67A56.13,56.13,0,0,0,379.28,688C349.34,688,332,711.9,326.07,745.25Z" />
        <path
            d="M447.23,772.18a202.43,202.43,0,0,0-4.4-20.26,120.49,120.49,0,0,0-7.2-18.89,111.62,111.62,0,0,0-10.08-17.22,67.92,67.92,0,0,0-13.68-14.44l-2-1.52-2.09-1.36-2.1-1.35c-.71-.44-1.46-.78-2.19-1.18a51.28,51.28,0,0,0-9.16-4,52.79,52.79,0,0,0-19.8-2.59,46.47,46.47,0,0,0-9.93,1.62,42,42,0,0,0-9.33,3.93,51.35,51.35,0,0,0-15.23,13.69l-.65-.45a56.78,56.78,0,0,1,6.46-8.39,47.32,47.32,0,0,1,8.14-6.91,44.67,44.67,0,0,1,9.62-4.89,49.67,49.67,0,0,1,10.56-2.51A57.1,57.1,0,0,1,395.83,687a55.71,55.71,0,0,1,10.25,3.84c.83.39,1.68.74,2.48,1.18l2.38,1.36c.79.46,1.59.9,2.38,1.38l2.25,1.55a80.91,80.91,0,0,1,16.15,14.77,69.82,69.82,0,0,1,11.1,18.81,84.51,84.51,0,0,1,5.44,21,80.77,80.77,0,0,1-.24,21.36Z" />
        <ellipse class="cls-1" cx="367.83" cy="716.19" rx="7.6" ry="6.92" />
        <ellipse class="cls-1" cx="351.45" cy="755.57" rx="2.53" ry="2.31" />
    </g>
</svg>