<svg width="1" height="1" viewBox="0 0 1 1" fill="none" xmlns="http://www.w3.org/2000/svg">
    <path fill-rule="evenodd" clip-rule="evenodd"
        d="M0.5 0C0.223858 0 0 0.223858 0 0.5C0 0.776142 0.223858 1 0.5 1C0.776142 1 1 0.776142 1 0.5C1 0.223858 0.776142 0 0.5 0ZM0.5 0.107142C0.283031 0.107142 0.107143 0.283031 0.107143 0.5C0.107143 0.716969 0.283031 0.892857 0.5 0.892857C0.716969 0.892857 0.892857 0.716969 0.892857 0.5C0.892857 0.283031 0.716969 0.107142 0.5 0.107142Z"
        fill="#FF0000" />
    <rect x="0.824432" y="0.787415" width="0.857143" height="0.0928571" transform="rotate(-145 0.824432 0.787415)"
        fill="#FF0000" />
</svg>